<svg width="32" height="32" viewBox="0 0 32 32" fill="none" xmlns="http://www.w3.org/2000/svg">
<path d="M16.1875 4.00001C8.82276 3.89223 2.91462 10.486 4.15625 18.0313C4.99816 23.1517 9.20505 27.1814 14.3438 27.875C17.8086 28.3429 21.0478 27.3431 23.5 25.375L22.25 23.8125C20.2042 25.4544 17.5129 26.3004 14.5938 25.9063C10.3385 25.3319 6.85234 21.9523 6.15625 17.7188C5.10789 11.348 9.991 5.90978 16.1563 6.00001C21.411 6.07707 25.8405 10.435 26 15.6875C26.0035 15.8001 26 15.9095 26 16.0313C25.992 18.2342 24.2081 20.0008 22 20C20.883 19.9993 20 19.1157 20 18V17.5V14.5V10H18V10.7813C17.2815 10.2946 16.4275 10 15.5 10C13.0266 10 11 12.0266 11 14.5V17.5C11 19.9734 13.0266 22 15.5 22C16.8479 22 18.0482 21.3855 18.875 20.4375C19.6095 21.3716 20.7288 21.9992 22 22C25.284 22.0012 27.988 19.3203 28 16.0313C28 15.899 28.0045 15.7684 28 15.625C27.8076 9.28949 22.5247 4.09294 16.1875 4.00001ZM15.5 12C16.8926 12 18 13.1074 18 14.5V17.5C18 18.8926 16.8926 20 15.5 20C14.1074 20 13 18.8926 13 17.5V14.5C13 13.1074 14.1074 12 15.5 12Z" fill="white"/>
</svg>
