<svg width="27" height="27" viewBox="0 0 27 27" fill="none" xmlns="http://www.w3.org/2000/svg">
<path d="M8.64003 24.84H18.36C21.9386 24.84 24.84 21.9386 24.84 18.36V8.64C24.84 5.06142 21.9386 2.16 18.36 2.16H8.64003C5.06145 2.16 2.16003 5.06142 2.16003 8.64V18.36C2.16003 21.9386 5.06145 24.84 8.64003 24.84Z" stroke="white" stroke-width="2" stroke-miterlimit="10"/>
<path d="M13.5 8.10001C12.0678 8.10001 10.6943 8.66893 9.6816 9.68163C8.6689 10.6943 8.09998 12.0678 8.09998 13.5C8.09998 14.9322 8.6689 16.3057 9.6816 17.3184C10.6943 18.3311 12.0678 18.9 13.5 18.9C14.9321 18.9 16.3057 18.3311 17.3184 17.3184C18.331 16.3057 18.9 14.9322 18.9 13.5C18.9 12.0678 18.331 10.6943 17.3184 9.68163C16.3057 8.66893 14.9321 8.10001 13.5 8.10001Z" stroke="white" stroke-width="2" stroke-miterlimit="10"/>
<path d="M19.98 5.94C19.6936 5.94 19.4189 6.05379 19.2163 6.25633C19.0138 6.45887 18.9 6.73357 18.9 7.02C18.9 7.30644 19.0138 7.58114 19.2163 7.78368C19.4189 7.98622 19.6936 8.1 19.98 8.1C20.2665 8.1 20.5412 7.98622 20.7437 7.78368C20.9462 7.58114 21.06 7.30644 21.06 7.02C21.06 6.73357 20.9462 6.45887 20.7437 6.25633C20.5412 6.05379 20.2665 5.94 19.98 5.94Z" fill="white"/>
</svg>
