<svg width="28" height="28" viewBox="0 0 28 28" fill="none" xmlns="http://www.w3.org/2000/svg">
<path d="M19.0712 24.6126C18.2157 24.6063 17.364 24.4989 16.5337 24.2927C13.6664 23.6009 10.7138 21.846 8.22117 19.3512C5.72851 16.8563 3.9714 13.9032 3.2796 11.0387C2.55117 8.02538 3.0707 5.44741 4.74086 3.77725L5.21773 3.30038C5.6504 2.86858 6.2367 2.62607 6.84796 2.62607C7.45923 2.62607 8.04553 2.86858 8.4782 3.30038L11.2186 6.04022C11.6507 6.47274 11.8934 7.0591 11.8934 7.67045C11.8934 8.28181 11.6507 8.86817 11.2186 9.30069L9.59984 10.9189C10.3759 12.2806 11.4313 13.6434 12.6787 14.8908C13.9262 16.1383 15.2901 17.1943 16.6512 17.9703L18.2694 16.3515C18.4835 16.1374 18.7377 15.9675 19.0174 15.8517C19.2971 15.7358 19.5969 15.6761 19.8997 15.6761C20.2025 15.6761 20.5023 15.7358 20.782 15.8517C21.0617 15.9675 21.3159 16.1374 21.5299 16.3515L24.2698 19.0914C24.7019 19.5238 24.9447 20.11 24.9447 20.7214C24.9447 21.3327 24.7019 21.919 24.2698 22.3513L23.7923 22.8282C22.6149 24.0078 20.9852 24.6126 19.0712 24.6126ZM6.84796 4.26561C6.76065 4.26518 6.67412 4.28217 6.59346 4.3156C6.51279 4.34904 6.43961 4.39823 6.3782 4.4603L5.90078 4.93717C4.65007 6.18788 4.28476 8.21842 4.8721 10.6515C5.4939 13.2289 7.0946 15.9069 9.3789 18.1907C11.6632 20.4744 14.3407 22.0735 16.9187 22.6975C19.3523 23.2848 21.3817 22.9195 22.6324 21.6688L23.1093 21.1919C23.2339 21.0672 23.3039 20.8982 23.3039 20.7219C23.3039 20.5456 23.2339 20.3766 23.1093 20.2519L20.37 17.512C20.2453 17.3874 20.0762 17.3174 19.9 17.3174C19.7237 17.3174 19.5546 17.3874 19.4299 17.512L17.3786 19.5633C17.2555 19.6865 17.0964 19.7673 16.9244 19.794C16.7523 19.8208 16.5762 19.7921 16.4216 19.7121C14.7399 18.8426 13.0446 17.5765 11.5188 16.0508C9.99304 14.525 8.72976 12.8308 7.85804 11.1491C7.77799 10.9945 7.7492 10.8185 7.77585 10.6464C7.80249 10.4744 7.88318 10.3152 8.00625 10.1921L10.0581 8.14077C10.1827 8.01607 10.2527 7.84701 10.2527 7.67073C10.2527 7.49445 10.1827 7.32539 10.0581 7.20069L7.31828 4.4603C7.25667 4.39833 7.18338 4.34922 7.10264 4.3158C7.02191 4.28238 6.93534 4.26532 6.84796 4.26561Z" fill="white"/>
<path d="M19.9473 14.7509C19.7297 14.7509 19.5211 14.6644 19.3672 14.5106C19.2134 14.3568 19.127 14.1481 19.127 13.9305C19.1254 12.4915 18.553 11.1118 17.5355 10.0941C16.5179 9.07648 15.1383 8.504 13.6992 8.50226C13.4817 8.50226 13.273 8.41583 13.1192 8.26199C12.9653 8.10816 12.8789 7.89951 12.8789 7.68195C12.8789 7.46439 12.9653 7.25574 13.1192 7.1019C13.273 6.94806 13.4817 6.86163 13.6992 6.86163C17.5968 6.86163 20.7676 10.0335 20.7676 13.9305C20.7676 14.1481 20.6812 14.3568 20.5273 14.5106C20.3735 14.6644 20.1648 14.7509 19.9473 14.7509Z" fill="white"/>
<path d="M23.4145 14.7508C23.1969 14.7508 22.9882 14.6644 22.8344 14.5106C22.6806 14.3567 22.5941 14.1481 22.5941 13.9305C22.5941 9.02561 18.602 5.03506 13.6992 5.03506C13.4817 5.03506 13.273 4.94864 13.1192 4.7948C12.9653 4.64096 12.8789 4.43231 12.8789 4.21475C12.8789 3.99719 12.9653 3.78854 13.1192 3.6347C13.273 3.48087 13.4817 3.39444 13.6992 3.39444C19.5087 3.39444 24.2348 8.12108 24.2348 13.9305C24.2348 14.1481 24.1483 14.3567 23.9945 14.5106C23.8407 14.6644 23.632 14.7508 23.4145 14.7508Z" fill="white"/>
</svg>
