<svg width="28" height="28" viewBox="0 0 28 28" fill="none" xmlns="http://www.w3.org/2000/svg">
<g clip-path="url(#clip0_121_163)">
<path d="M13.2982 0.00425742C11.0512 0.0313824 6.22033 0.400633 3.51833 2.87951C1.50846 4.87101 0.806709 7.81538 0.724459 11.4563C0.656209 15.084 0.573959 21.8968 7.14083 23.7518V26.5771C7.14083 26.5771 7.09971 27.7076 7.84696 27.9395C8.76746 28.2309 9.29158 27.3611 10.1666 26.4266L11.7985 24.5813C16.2916 24.9549 19.733 24.0939 20.1293 23.9661C21.0411 23.6748 26.1765 23.0185 27.0156 16.2049C27.8766 9.16813 26.5965 4.73451 24.2856 2.72901H24.2716C23.5742 2.08676 20.7716 0.0445074 14.5101 0.0217574C14.5101 0.0217574 14.0455 -0.00974258 13.2982 0.00338242V0.00425742ZM13.3752 1.98263C14.0131 1.97826 14.4007 2.00538 14.4007 2.00538C19.7006 2.01938 22.2302 3.61451 22.827 4.15176C24.773 5.81951 25.7757 9.81651 25.0416 15.6913C24.3442 21.3875 20.1792 21.748 19.4083 21.9939C19.0802 22.0989 16.0492 22.8461 12.2307 22.6003C12.2307 22.6003 9.38696 26.032 8.49796 26.9158C8.35708 27.0706 8.19258 27.1161 8.08758 27.0934C7.93708 27.0566 7.89158 26.8703 7.90033 26.6148L7.92746 21.9256C2.35808 20.3856 2.68621 14.5748 2.74571 11.5394C2.81396 8.50401 3.38358 6.02076 5.07933 4.33901C7.36221 2.27488 11.4642 1.99663 13.3735 1.98263H13.3752ZM13.7952 5.01713C13.6036 5.01276 13.4443 5.17201 13.4443 5.36363C13.4443 5.55963 13.6036 5.71451 13.7952 5.71451C15.5496 5.68301 17.241 6.34801 18.4983 7.56951C19.7697 8.80413 20.3892 10.4631 20.4128 12.6323C20.4128 12.8239 20.5677 12.9831 20.7637 12.9831V12.9691C20.9553 12.9691 21.1146 12.8143 21.1146 12.6226C21.2012 10.5585 20.4356 8.55301 18.9997 7.06726C17.6146 5.71363 15.8593 5.01626 13.7952 5.01626V5.01713ZM9.18308 5.81951C8.93721 5.78276 8.68171 5.83351 8.46733 5.96038H8.44896C7.97471 6.23863 7.53283 6.58951 7.11371 7.05851C6.79433 7.42776 6.62108 7.80138 6.57558 8.16101C6.54846 8.37538 6.56683 8.58976 6.63071 8.79451L6.65346 8.80851C7.01308 9.86551 7.48296 10.8823 8.05696 11.8395C8.79546 13.1835 9.70633 14.4278 10.7642 15.5399L10.7957 15.5854L10.8456 15.6221L10.8771 15.6589L10.9138 15.6904C12.0303 16.7526 13.2746 17.6635 14.6238 18.4108C16.1638 19.249 17.0983 19.6454 17.6592 19.8099V19.8186C17.8237 19.8685 17.9733 19.8913 18.1238 19.8913C18.6025 19.8545 19.054 19.6638 19.4092 19.34C19.8651 18.9296 20.2247 18.479 20.4942 18.0004V17.9916C20.7628 17.4859 20.6718 17.0073 20.2842 16.6835C19.5098 16.0045 18.6663 15.4025 17.7773 14.8836C17.1806 14.5599 16.5742 14.7559 16.3283 15.084L15.8042 15.7446C15.5356 16.0728 15.0473 16.0273 15.0473 16.0273L15.0333 16.036C11.3925 15.1059 10.4212 11.4195 10.4212 11.4195C10.4212 11.4195 10.3757 10.9181 10.7126 10.6626L11.3688 10.1341C11.683 9.87863 11.9017 9.27313 11.5648 8.67551C11.0495 7.78213 10.4483 6.94388 9.76933 6.16863C9.62321 5.98663 9.41408 5.86326 9.18133 5.81776L9.18308 5.81951ZM14.4007 6.85901C13.9361 6.85901 13.9361 7.56076 14.4051 7.56076C15.5715 7.57913 16.6836 8.06213 17.4947 8.90038C18.2332 9.71588 18.6156 10.8009 18.543 11.899C18.5473 12.0906 18.7022 12.2455 18.8938 12.2455L18.9078 12.2639C19.0995 12.2639 19.2587 12.1046 19.2587 11.913C19.2902 10.5226 18.858 9.35626 18.0101 8.42176C17.1578 7.48726 15.9687 6.96313 14.4506 6.85901C14.4322 6.85901 14.4191 6.85901 14.4007 6.85901ZM14.9756 8.74551C14.497 8.73151 14.4786 9.44726 14.9528 9.46126C16.1061 9.52076 16.6661 10.1035 16.7396 11.3023C16.744 11.4939 16.8988 11.6444 17.0861 11.6444H17.1001C17.2961 11.6356 17.451 11.4668 17.437 11.2708C17.3547 9.70801 16.5025 8.82776 14.9896 8.74638C14.9852 8.74638 14.9808 8.74638 14.9756 8.74638V8.74551Z" fill="white"/>
</g>
<defs>
<clipPath id="clip0_121_163">
<rect width="28" height="28" fill="white"/>
</clipPath>
</defs>
</svg>
