<svg width="36" height="36" viewBox="0 0 36 36" fill="none" xmlns="http://www.w3.org/2000/svg">
<g clip-path="url(#clip0_121_165)" filter="url(#filter0_d_121_165)">
<path d="M32 13.6394C32 21.1724 25.8465 27.2788 18.2545 27.2788C15.8443 27.2788 13.58 26.6628 11.6101 25.5817L4 28L6.48111 20.682C5.22951 18.6268 4.50867 16.2164 4.50867 13.6394C4.50867 6.10649 10.6628 0 18.2545 0C25.8472 0 32 6.10649 32 13.6394ZM18.2545 2.17218C11.8817 2.17218 6.69796 7.3164 6.69796 13.6394C6.69796 16.1485 7.51587 18.4722 8.89938 20.3625L7.45551 24.6213L11.8966 23.2098C13.7213 24.4079 15.9072 25.1067 18.2548 25.1067C24.6267 25.1067 29.8113 19.9631 29.8113 13.64C29.8113 7.31702 24.627 2.17218 18.2545 2.17218ZM25.1957 16.7807C25.1108 16.6416 24.8864 16.5576 24.5498 16.3906C24.2126 16.2235 22.5556 15.4143 22.2476 15.3032C21.9387 15.1919 21.7134 15.1359 21.4891 15.4703C21.2648 15.8051 20.6189 16.5576 20.422 16.7807C20.2254 17.0044 20.0291 17.0324 19.6918 16.865C19.3552 16.698 18.2697 16.3445 16.9827 15.2059C15.9812 14.3198 15.3048 13.226 15.1082 12.8909C14.9119 12.5564 15.0877 12.3757 15.256 12.2092C15.4078 12.0593 15.5932 11.8188 15.7616 11.6237C15.9305 11.4284 15.9865 11.2893 16.0982 11.0659C16.2111 10.8428 16.1548 10.6478 16.0702 10.4801C15.9862 10.313 15.3117 8.66787 15.0311 7.99836C14.7504 7.32947 14.4701 7.44084 14.2732 7.44084C14.0769 7.44084 13.852 7.41284 13.6273 7.41284C13.4027 7.41284 13.0375 7.49653 12.7285 7.83098C12.4199 8.16573 11.5497 8.97462 11.5497 10.6195C11.5497 12.2646 12.7565 13.8541 12.9255 14.0768C13.0938 14.2996 15.2557 17.7853 18.681 19.124C22.1067 20.4621 22.1067 20.0156 22.7245 19.9596C23.3418 19.904 24.7175 19.1511 24.9994 18.3708C25.2794 17.5893 25.2794 16.9201 25.1957 16.7807Z" fill="white"/>
</g>
<defs>
<filter id="filter0_d_121_165" x="0" y="0" width="36" height="36" filterUnits="userSpaceOnUse" color-interpolation-filters="sRGB">
<feFlood flood-opacity="0" result="BackgroundImageFix"/>
<feColorMatrix in="SourceAlpha" type="matrix" values="0 0 0 0 0 0 0 0 0 0 0 0 0 0 0 0 0 0 127 0" result="hardAlpha"/>
<feOffset dy="4"/>
<feGaussianBlur stdDeviation="2"/>
<feComposite in2="hardAlpha" operator="out"/>
<feColorMatrix type="matrix" values="0 0 0 0 0 0 0 0 0 0 0 0 0 0 0 0 0 0 0.25 0"/>
<feBlend mode="normal" in2="BackgroundImageFix" result="effect1_dropShadow_121_165"/>
<feBlend mode="normal" in="SourceGraphic" in2="effect1_dropShadow_121_165" result="shape"/>
</filter>
<clipPath id="clip0_121_165">
<rect width="28" height="28" fill="white" transform="translate(4)"/>
</clipPath>
</defs>
</svg>
