<svg width="78" height="82" viewBox="0 0 78 82" fill="none" xmlns="http://www.w3.org/2000/svg">
<path d="M41.8133 76.0905C41.9101 77.015 41.9679 78.2147 42.1765 79.3861C42.4288 80.8034 43.2176 80.9287 44.1351 79.9793C45.0023 79.0817 45.8109 78.1137 46.579 77.1219C54.2612 67.1913 59.3994 55.7585 64.1881 44.1837C66.8453 37.7609 67.8549 38.7488 60.7924 35.726C50.4431 31.2971 39.5963 30.8458 28.6255 32.3987C22.7882 33.2242 17.2041 34.9107 12.0415 37.9692C10.7805 38.7157 10.2755 39.4382 10.8848 40.9989C12.8359 45.9967 14.4802 51.131 16.5868 56.0541C18.3974 60.2859 20.6431 64.3211 22.791 68.39C23.1302 69.034 23.9669 69.394 24.5734 69.8858C25.0155 69.254 25.5906 68.6822 25.8771 67.9826C27.6018 63.7771 29.1766 59.5039 30.9839 55.3374C31.6496 53.8041 32.616 52.2897 33.783 51.1344C37.3023 47.6515 41.0175 48.7219 42.1135 53.6616C42.7365 56.4678 42.8619 59.4585 42.782 62.3525C42.6585 66.8449 42.169 71.326 41.8133 76.0905ZM3.30408 41.5429C4.66416 39.5802 5.89927 37.5038 7.43082 35.6982C8.37278 34.5883 8.55647 33.6159 8.23888 32.2743C6.76276 26.0349 6.3141 19.6896 6.6735 13.2868C7.0935 5.80578 12.1674 2.17113 19.0918 4.40607C20.9475 5.00469 22.7858 5.7326 24.5279 6.62247C28.3831 8.5925 32.4112 9.43701 36.6929 9.19795C37.3511 9.16087 38.0342 9.6141 38.7056 9.83999C38.2546 10.4454 37.9158 11.3865 37.3323 11.5973C34.7606 12.5272 32.1312 13.297 29.4956 14.0167C28.4587 14.3001 27.3265 14.2035 26.2831 14.4699C25.6347 14.6353 25.0705 15.1573 24.4687 15.5193C25.0484 15.8291 25.6399 16.4258 26.2074 16.4019C29.2217 16.2736 32.2472 16.1272 35.237 15.7291C39.9848 15.0963 43.9481 12.7365 47.3823 9.32333C49.0516 7.66457 50.7739 6.05898 52.5361 4.50804C57.1002 0.491878 63.5567 1.13636 67.3936 5.88432C71.0031 10.3513 71.3479 15.5881 70.631 20.9913C70.1692 24.4717 69.4142 27.9215 68.6 31.3356C68.235 32.8646 68.3398 33.8545 69.4649 35.0873C71.2549 37.0476 72.6803 39.365 74.2612 41.5316C57.9787 21.7367 18.4825 22.5476 3.30408 41.5429Z" fill="#0F2D4A"/>
</svg>
