<svg width="78" height="82" viewBox="0 0 78 82" fill="none" xmlns="http://www.w3.org/2000/svg">
<path d="M41.8133 76.0904C41.9101 77.0149 41.9679 78.2146 42.1765 79.386C42.4288 80.8033 43.2176 80.9287 44.1351 79.9793C45.0023 79.0816 45.8109 78.1136 46.579 77.1218C54.2612 67.1912 59.3994 55.7584 64.1881 44.1836C66.8453 37.7608 67.8549 38.7487 60.7924 35.7259C50.4431 31.297 39.5963 30.8457 28.6255 32.3986C22.7882 33.2241 17.2041 34.9106 12.0415 37.9691C10.7805 38.7156 10.2755 39.4381 10.8848 40.9988C12.8359 45.9966 14.4802 51.1309 16.5868 56.054C18.3974 60.2858 20.6431 64.321 22.791 68.3899C23.1302 69.0339 23.9669 69.3939 24.5734 69.8857C25.0155 69.2539 25.5906 68.6821 25.8771 67.9825C27.6018 63.777 29.1766 59.5038 30.9839 55.3373C31.6496 53.804 32.616 52.2896 33.783 51.1343C37.3023 47.6514 41.0175 48.7218 42.1135 53.6615C42.7365 56.4677 42.8619 59.4584 42.782 62.3525C42.6585 66.8448 42.169 71.3259 41.8133 76.0904ZM3.30408 41.5428C4.66416 39.5801 5.89927 37.5037 7.43082 35.6981C8.37278 34.5882 8.55647 33.6158 8.23888 32.2742C6.76276 26.0348 6.3141 19.6895 6.6735 13.2867C7.0935 5.80569 12.1674 2.17104 19.0918 4.40598C20.9475 5.0046 22.7858 5.7325 24.5279 6.62238C28.3831 8.59241 32.4112 9.43691 36.6929 9.19786C37.3511 9.16078 38.0342 9.61401 38.7056 9.8399C38.2546 10.4453 37.9158 11.3864 37.3323 11.5972C34.7606 12.5271 32.1312 13.297 29.4956 14.0166C28.4587 14.3 27.3265 14.2034 26.2831 14.4698C25.6347 14.6352 25.0705 15.1572 24.4687 15.5192C25.0484 15.829 25.6399 16.4257 26.2074 16.4018C29.2217 16.2735 32.2472 16.1271 35.237 15.729C39.9848 15.0962 43.9481 12.7364 47.3823 9.32324C49.0516 7.66448 50.7739 6.05889 52.5361 4.50795C57.1002 0.491787 63.5567 1.13627 67.3936 5.88423C71.0031 10.3512 71.3479 15.588 70.631 20.9912C70.1692 24.4717 69.4142 27.9214 68.6 31.3355C68.235 32.8645 68.3398 33.8544 69.4649 35.0873C71.2549 37.0475 72.6803 39.3649 74.2612 41.5316C57.9787 21.7367 18.4825 22.5475 3.30408 41.5428Z" fill="#46B1DE"/>
</svg>
